<svg width="21" height="20" viewBox="0 0 21 20" fill="none" xmlns="http://www.w3.org/2000/svg">
<path d="M10.5 1.90479C6.03639 1.90479 2.40479 5.53639 2.40479 10C2.40479 14.4637 6.03639 18.0953 10.5 18.0953C14.9637 18.0953 18.5953 14.4637 18.5953 10C18.5953 5.53639 14.9637 1.90479 10.5 1.90479ZM10.5 17.0834C6.59421 17.0834 3.41669 13.9058 3.41669 10C3.41669 6.09421 6.59421 2.91669 10.5 2.91669C14.4058 2.91669 17.5834 6.09421 17.5834 10C17.5834 13.9058 14.4058 17.0834 10.5 17.0834Z" fill="#696969"/>
<path d="M11.0124 4.76196H10.0238V10.1048L13.1344 13.3334L13.8333 12.6079L11.0124 9.67996V4.76196Z" fill="#696969"/>
</svg>
