<svg width="32" height="32" viewBox="0 0 32 32" fill="none" xmlns="http://www.w3.org/2000/svg">
<path d="M12.4509 21.3206C16.6594 21.0869 20 17.6004 20 13.3334C20 8.9151 16.4183 5.33337 12 5.33337C7.58172 5.33337 4 8.9151 4 13.3334C4 14.9076 4.45458 16.3756 5.23985 17.6133L4.67448 19.3094L4.67358 19.3119C4.45703 19.9616 4.34871 20.2865 4.42585 20.5028C4.49306 20.6913 4.64225 20.8399 4.83073 20.9071C5.0463 20.984 5.36899 20.8764 6.01425 20.6613L6.02344 20.6585L7.72005 20.0931C8.95774 20.8784 10.4258 21.3331 12.0001 21.3331C12.1514 21.3331 12.3016 21.3289 12.4509 21.3206ZM12.4509 21.3206C12.451 21.321 12.4507 21.3203 12.4509 21.3206ZM12.4509 21.3206C13.5454 24.4346 16.5121 26.6669 20.0002 26.6669C21.5745 26.6669 23.0422 26.2118 24.2798 25.4265L25.976 25.9919L25.9794 25.9925C26.6289 26.209 26.9544 26.3175 27.1707 26.2404C27.3592 26.1732 27.5065 26.0246 27.5737 25.8361C27.6509 25.6195 27.5429 25.2942 27.3258 24.6428L26.7604 22.9467L26.9498 22.6329C27.6184 21.464 27.9993 20.1098 27.9993 18.6667C27.9993 14.2484 24.4183 10.6667 20 10.6667L19.7005 10.6722L19.5495 10.6796" stroke="white" stroke-width="2" stroke-linecap="round" stroke-linejoin="round"/>
</svg>
