<svg width="18" height="18" viewBox="0 0 18 18" fill="none" xmlns="http://www.w3.org/2000/svg">
<path fill-rule="evenodd" clip-rule="evenodd" d="M7.74329 15.0795C8.13179 15.5123 8.63054 15.75 9.14804 15.75H9.14879C9.66854 15.75 10.1695 15.5122 10.5588 15.0787C10.7673 14.8485 11.1228 14.8297 11.353 15.0375C11.584 15.2452 11.6028 15.6015 11.395 15.8317C10.789 16.5045 9.99179 16.875 9.14879 16.875H9.14729C8.30654 16.8743 7.51079 16.5037 6.90704 15.831C6.69929 15.6007 6.71804 15.2445 6.94904 15.0375C7.18004 14.829 7.53554 14.8478 7.74329 15.0795ZM9.18539 0.75C12.5191 0.75 14.7586 3.3465 14.7586 5.77125C14.7586 7.0185 15.0759 7.54725 15.4126 8.10825C15.7456 8.66175 16.1229 9.29025 16.1229 10.4782C15.8611 13.5135 12.6924 13.761 9.18539 13.761C5.67839 13.761 2.50889 13.5135 2.25013 10.5262C2.24789 9.29025 2.62514 8.66175 2.95814 8.10825L3.0757 7.91037C3.36515 7.41289 3.61214 6.87176 3.61214 5.77125C3.61214 3.3465 5.85164 0.75 9.18539 0.75ZM9.18539 1.875C6.56414 1.875 4.73714 3.9285 4.73714 5.77125C4.73714 7.3305 4.30439 8.05125 3.92189 8.68725C3.61514 9.198 3.37289 9.6015 3.37289 10.4782C3.49814 11.8927 4.43189 12.636 9.18539 12.636C13.9126 12.636 14.8756 11.8597 15.0001 10.4295C14.9979 9.6015 14.7556 9.198 14.4489 8.68725C14.0664 8.05125 13.6336 7.3305 13.6336 5.77125C13.6336 3.9285 11.8066 1.875 9.18539 1.875Z" fill="#141414"/>
</svg>
