<svg width="21" height="20" viewBox="0 0 21 20" fill="none" xmlns="http://www.w3.org/2000/svg">
<path d="M13.6296 1.66675C16.8251 1.66675 18.8333 3.6603 18.8333 6.87783V9.01796C18.8333 9.18641 18.7659 9.34785 18.6462 9.46627C18.5264 9.58469 18.3641 9.65023 18.1957 9.64828V9.63362C17.8435 9.63362 17.5581 9.34814 17.5581 8.99598V6.87783C17.5581 4.33459 16.1655 2.94203 13.6296 2.94203H7.37777C4.84186 2.94203 3.44197 4.34192 3.44197 6.87783V13.1297C3.44197 15.6582 4.84186 17.0581 7.37777 17.0581H13.6296C16.1655 17.0581 17.5581 15.6582 17.5581 13.1297C17.5581 12.7775 17.8435 12.492 18.1957 12.492C18.5479 12.492 18.8333 12.7775 18.8333 13.1297C18.8333 16.3399 16.8398 18.3334 13.6296 18.3334H7.37777C4.16024 18.3334 2.16669 16.3399 2.16669 13.1297V6.87783C2.16669 3.6603 4.16024 1.66675 7.37777 1.66675H13.6296ZM10.5587 11.3706C10.7285 11.3744 10.8896 11.4466 11.0055 11.5707C11.1214 11.6949 11.1822 11.8606 11.1743 12.0303V12.8365L11.163 12.9366C11.1374 13.0678 11.0711 13.1887 10.9721 13.281C10.8484 13.3965 10.6838 13.4581 10.5147 13.4521C10.1642 13.4363 9.89069 13.1432 9.89902 12.7925V11.9863C9.90475 11.8172 9.9775 11.6572 10.1012 11.5417C10.225 11.4263 10.3895 11.3647 10.5587 11.3706ZM10.5293 6.54068C10.6003 6.54067 10.67 6.55261 10.7358 6.57539C10.9982 6.65441 11.189 6.89775 11.189 7.18566L11.1884 9.17841L13.3584 9.17921C13.4315 9.17835 13.5034 9.1902 13.5712 9.21356C13.67 9.2437 13.7615 9.29834 13.836 9.37373C13.9545 9.49353 14.02 9.65574 14.0181 9.82418C14.0181 10.1707 13.7415 10.4539 13.3951 10.4618H7.71491C7.65524 10.4605 7.59762 10.451 7.54308 10.4346C7.26431 10.3652 7.05859 10.1152 7.05524 9.81685C7.05332 9.64841 7.11887 9.4862 7.23728 9.3664C7.3557 9.24661 7.51715 9.17919 7.6856 9.17921H9.88436V7.17833C9.89225 6.82664 10.1776 6.54455 10.5293 6.54068Z" fill="#696969"/>
</svg>
