<svg width="20" height="20" viewBox="0 0 20 20" fill="none" xmlns="http://www.w3.org/2000/svg">
<path fill-rule="evenodd" clip-rule="evenodd" d="M9.34185 11.5503L12.3893 16.4945C12.5227 16.7112 12.731 16.7087 12.8152 16.697C12.8994 16.6853 13.1018 16.6337 13.1752 16.3878L16.986 3.517C17.0527 3.2895 16.9302 3.1345 16.8752 3.0795C16.8219 3.0245 16.6694 2.907 16.4485 2.9695L3.56852 6.74116C3.32435 6.81283 3.27102 7.01783 3.25935 7.102C3.24768 7.18783 3.24435 7.40033 3.46018 7.53616L8.46102 10.6637L12.8793 6.19866C13.1219 5.95366 13.5177 5.95116 13.7635 6.19366C14.0093 6.43616 14.011 6.83283 13.7685 7.07783L9.34185 11.5503ZM12.7502 17.952C12.1702 17.952 11.6385 17.657 11.3252 17.1503L8.09435 11.9078L2.79768 8.59533C2.22685 8.23783 1.92852 7.60116 2.02102 6.932C2.11268 6.26283 2.57185 5.73116 3.21685 5.542L16.0969 1.77033C16.6894 1.597 17.3244 1.76117 17.761 2.19617C18.1977 2.63533 18.3602 3.277 18.1835 3.872L14.3727 16.742C14.1818 17.3895 13.6485 17.847 12.981 17.9362C12.9027 17.9462 12.8268 17.952 12.7502 17.952Z" fill="#696969"/>
</svg>
